# xmcd CD database file
#
# Track frame offsets:
#	150
#	22022
#	30555
#
# Disc length: 711 seconds
#
# Revision: 0
# Processed by: cddbd v1.5.1PL0 Copyright (c) Steve Scherf et al.
# Submitted via: CDex 1.51
#
DISCID=1b02c503
DTITLE=Syrup16g - QUIP DX00003
DYEAR=1900
DGENRE=Techno
TTITLE0=DOPE OF SOAP (DEMO)
TTITLE1=HOWLETT (DEMO)
TTITLE2=HEAVY (DEMO)
EXTD=
EXTT0=
EXTT1=
EXTT2=
PLAYORDER=
